<?xml version="1.0" encoding="UTF-8"?>
<svg width="512px" height="512px" viewBox="0 0 512 512" version="1.1" xmlns="http://www.w3.org/2000/svg" xmlns:xlink="http://www.w3.org/1999/xlink">
    <!-- Generator: Sketch 47.1 (45422) - http://www.bohemiancoding.com/sketch -->
    <title>icon-mask</title>
    <desc>Created with Sketch.</desc>
    <defs></defs>
    <g id="Page-1" stroke="none" stroke-width="1" fill="none" fill-rule="evenodd">
        <g id="icon-mask">
            <g id="noun_64505_cc" transform="translate(0.000000, 89.000000)">
                <path d="M334.7901,334.692607 C322.524571,334.692607 311.429108,327.180578 306.88602,315.653498 L249.835167,170.828374 L204.049235,286.204401 C199.958035,296.509157 190.532944,303.729771 179.542383,304.976379 C168.495337,306.312031 157.762998,301.301313 151.476914,292.186502 L99.7115361,217.122873 L53.1105918,273.446903 C42.5315723,286.25297 23.5926257,288.00146 10.8429302,277.389099 C-1.90676542,266.760549 -3.66590063,247.778105 6.91311893,234.988227 L78.7955798,148.114199 C84.7911645,140.8693 93.7885763,136.684258 103.213668,137.267088 C112.590343,137.679926 121.240769,142.472082 126.574661,150.218863 L168.987572,211.731697 L222.044058,78.0370039 C226.587146,66.5827782 237.634192,59.0626541 249.932,59.0626541 L249.972347,59.0626541 C262.270155,59.0788438 273.317201,66.6232525 277.84415,78.1017627 L331.142719,213.407333 L389.541167,21.3325158 C393.132062,9.51402146 403.565832,1.09536798 415.847501,0.0997003066 C427.967781,-0.904062224 439.765284,5.74181711 445.204078,16.8560587 L508.928348,147.150911 C516.22311,162.069736 510.082276,180.113177 495.194182,187.44712 C480.27381,194.756777 462.319334,188.5804 455.024571,173.669669 L424.788426,111.824946 L363.517263,313.378843 C359.797257,325.610175 348.75828,334.150251 336.008584,334.668322 C335.613182,334.684512 335.201641,334.692607 334.7901,334.692607 Z" id="Shape" fill="#FFFFFF" fill-rule="nonzero"></path>
                <g id="Group" transform="translate(43.828794, 28.887160)"></g>
            </g>
        </g>
    </g>
</svg>