<?xml version="1.0" encoding="UTF-8"?>
<svg width="512px" height="512px" viewBox="0 0 512 512" version="1.1" xmlns="http://www.w3.org/2000/svg" xmlns:xlink="http://www.w3.org/1999/xlink">
    <!-- Generator: Sketch 47.1 (45422) - http://www.bohemiancoding.com/sketch -->
    <title>icon</title>
    <desc>Created with Sketch.</desc>
    <defs></defs>
    <g id="Page-1" stroke="none" stroke-width="1" fill="none" fill-rule="evenodd">
        <g id="icon">
            <circle id="Oval" fill="#414141" cx="257" cy="256" r="256"></circle>
            <path d="M312.614302,375.28667 C303.877966,375.28667 295.975031,369.931959 292.739138,361.715247 L252.103682,258.481261 L219.49186,340.723394 C216.577832,348.068811 209.864647,353.215797 202.036431,354.104402 C194.167981,355.056479 186.523687,351.484748 182.046315,344.987544 L145.175529,291.480823 L111.983201,331.629617 C104.448111,340.758015 90.9585189,342.00437 81.8773277,334.439687 C72.7961365,326.863463 71.543162,313.33243 79.0782517,304.215573 L130.277778,242.290184 C134.548237,237.125888 140.956799,234.142714 147.669983,234.558165 C154.348682,234.852444 160.510098,238.26838 164.309254,243.790426 L194.518584,287.637895 L232.308984,192.337883 C235.544877,184.173102 243.413326,178.812621 252.172653,178.812621 L252.201391,178.812621 C260.960717,178.824161 268.829167,184.201953 272.053564,192.384044 L310.016392,288.832318 L351.611696,151.917891 C354.169373,143.493453 361.601006,137.492484 370.348837,136.782754 C378.981717,136.067253 387.384692,140.804557 391.258567,148.726991 L436.647281,241.603534 C441.843101,252.237945 437.469186,265.099638 426.864884,270.327406 C416.237591,275.537863 403.449204,271.135228 398.253384,260.506588 L376.717166,216.422543 L333.07572,360.093831 C330.426082,368.812547 322.563379,374.900069 313.482188,375.26936 C313.200556,375.2809 312.907429,375.28667 312.614302,375.28667 Z" id="Shape" fill="#B36AE2" fill-rule="nonzero"></path>
        </g>
    </g>
</svg>